<svg xmlns="http://www.w3.org/2000/svg" width="62" height="64" fill="none"><path fill="#2E2F42" d="M61.5933 30.6025C61.5899 13.6978 47.8828-.00341734 30.9775 6.4e-7 14.0728.0034186.371583 13.7109.375001 30.6157.37793 43.9316 8.98877 55.7178 21.6738 59.7681c.1211.0381.2471.0576.3736.0571.2412-.0005.4775-.0649.685-.1875.27-.1597.4717-.4136.5664-.7129l7.73-24.5c2.1133-.0107 3.8174-1.7329 3.8062-3.8457-.0108-2.1133-1.7325-3.8174-3.8457-3.8066-.5684.0024-1.1294.1333-1.6402.3828L19.1372 16.9419c-.5068-.4893-1.314-.4751-1.8032.0312-.4776.4947-.4776 1.2779 0 1.7725l10.2065 10.2183c-.7832 1.5986-.3354 3.5283 1.0728 4.6181L21.248 56.9277C6.69238 51.5659-.760742 35.4199 4.60108 20.8643 9.96289 6.30859 26.1089-1.14453 40.6646 4.21729 55.2202 9.5791 62.6733 25.7256 57.3115 40.2808c-2.6196 7.1113-8.0019 12.8623-14.9243 15.9467l-.7959-3.7485c-.1455-.689-.8227-1.1294-1.5117-.9834-.2173.0464-.419.1485-.585.2964l-7.6738 6.8511c-.5264.4682-.5732 1.2744-.1045 1.8008.1524.1709.3477.2978.5664.3676l9.7974 3.127c.6704.2153 1.3887-.1533 1.604-.8242.0683-.2119.0796-.4375.0337-.6553l-.7822-3.6782c11.3286-4.7759 18.684-15.8843 18.6577-28.1783Zm-30.6089-1.2753c.7041 0 1.2754.5712 1.2754 1.2753 0 .7046-.5713 1.2754-1.2754 1.2754-.7046 0-1.2754-.5708-1.2754-1.2754 0-.7041.5708-1.2753 1.2754-1.2753Zm4.2007 29.728 4.3681-3.8965 1.2056 5.6807-5.5737-1.7842Z"/></svg>