<svg xmlns="http://www.w3.org/2000/svg" width="16" height="16" fill="none"><g fill="#F4F4FD" clip-path="url(#a)"><path d="M15.9961 16v-.0007h.004v-5.868c0-2.87065-.618-5.08198-3.974-5.08198-1.6133 0-2.69601.88533-3.13801 1.72466h-.04666V5.31732H5.65942V15.9993h3.31334V10.71c0-1.39268.264-2.73935 1.98864-2.73935 1.6994 0 1.7247 1.58933 1.7247 2.82865V16h3.31ZM.264038 5.31793H3.58137V15.9999H.264038V5.31793ZM1.92139-.00006104C.860728-.00006104.00006104.860606.00006104 1.92127c0 1.06067.86066696 1.93934 1.92132896 1.93934 1.06067 0 1.92134-.87867 1.92134-1.93934C3.84206.860606 2.98139-.00006104 1.92139-.00006104Z"/></g><defs><clipPath id="a"><path fill="#fff" d="M0 0h16v16H0z"/></clipPath></defs></svg>