<svg xmlns="http://www.w3.org/2000/svg" width="24" height="24" fill="none"><g fill="#2F2F37" fill-rule="evenodd" clip-rule="evenodd"><path d="M3.59961 6.00078c0-.31826.12643-.62348.35147-.84853.22504-.22504.53027-.35147.84853-.35147H19.1996c.3183 0 .6235.12643.8485.35147.2251.22505.3515.53027.3515.84853s-.1264.62349-.3515.84853c-.225.22504-.5302.35147-.8485.35147H4.79961c-.31826 0-.62349-.12643-.84853-.35147-.22504-.22504-.35147-.53027-.35147-.84853ZM3.59961 12.0008c0-.3183.12643-.6235.35147-.8485.22504-.2251.53027-.3515.84853-.3515H19.1996c.3183 0 .6235.1264.8485.3515.2251.225.3515.5302.3515.8485 0 .3182-.1264.6235-.3515.8485-.225.2251-.5302.3515-.8485.3515H4.79961c-.31826 0-.62349-.1264-.84853-.3515-.22504-.225-.35147-.5303-.35147-.8485ZM3.59961 18.0008c0-.3183.12643-.6235.35147-.8485.22504-.2251.53027-.3515.84853-.3515H19.1996c.3183 0 .6235.1264.8485.3515.2251.225.3515.5302.3515.8485 0 .3182-.1264.6235-.3515.8485-.225.2251-.5302.3515-.8485.3515H4.79961c-.31826 0-.62349-.1264-.84853-.3515-.22504-.225-.35147-.5303-.35147-.8485Z"/></g></svg>